<?xml version="1.0" standalone="no"?>
<!DOCTYPE svg PUBLIC "-//W3C//DTD SVG 1.1//EN" "http://www.w3.org/Graphics/SVG/1.1/DTD/svg11.dtd" >
<svg xmlns="http://www.w3.org/2000/svg" xmlns:xlink="http://www.w3.org/1999/xlink" version="1.1">
<metadata></metadata>
<defs>
<font id="objectiveextra_bold" horiz-adv-x="1294" >
<font-face units-per-em="2048" ascent="1638" descent="-410" />
<missing-glyph horiz-adv-x="620" />
<glyph horiz-adv-x="0" />
<glyph horiz-adv-x="682" />
<glyph horiz-adv-x="1519" d="M143 0v1466h1231v-1466h-1231zM487 295h543v879h-543v-879z" />
<glyph horiz-adv-x="1519" d="M143 0v1466h1231v-1466h-1231zM487 295h543v879h-543v-879z" />
<glyph unicode="&#xd;" horiz-adv-x="61" />
<glyph unicode=" "  horiz-adv-x="620" />
<glyph unicode="&#x09;" horiz-adv-x="620" />
<glyph unicode="&#xa0;" horiz-adv-x="620" />
<glyph unicode="!" horiz-adv-x="704" d="M133 174q0 92 62 152.5t157 60.5q96 0 157.5 -60t61.5 -153q0 -92 -61 -151.5t-158 -59.5q-95 0 -157 59.5t-62 151.5zM152 1065v401h401v-401l-104 -555h-195z" />
<glyph unicode="&#x22;" horiz-adv-x="864" d="M74 1180v286h282v-286l-49 -461h-184zM506 1180v286h285v-286l-52 -461h-182z" />
<glyph unicode="#" horiz-adv-x="1888" d="M74 403v261h364l58 210h-320v263h389l107 391h334l-107 -391h250l106 391h334l-108 -391h334v-263h-404l-57 -210h358v-261h-428l-108 -403h-332l106 403h-250l-108 -403h-332l109 403h-295zM770 664h252l55 210h-250z" />
<glyph unicode="$" horiz-adv-x="1486" d="M90 483h385q2 -94 80.5 -155.5t198.5 -61.5q97 0 156 40.5t59 103.5q0 41 -30 68.5t-80 43t-115.5 26.5t-137.5 23t-144.5 29t-138 48.5t-115.5 76.5t-80 119t-30 170q0 184 120.5 313t322.5 172v180h409v-190q187 -51 300 -181t114 -302h-371q0 84 -72.5 139t-181.5 55 q-94 0 -152.5 -37t-58.5 -96q0 -39 30 -65t80 -40.5t115.5 -25t138 -22.5t144.5 -28.5t137.5 -48.5t115.5 -77t80 -119t30 -170q0 -186 -121.5 -319t-327.5 -181v-221h-409v221q-205 50 -328 187.5t-123 324.5z" />
<glyph unicode="%" horiz-adv-x="2254" d="M74 1108q0 200 128.5 328.5t327.5 128.5q198 0 326.5 -129t128.5 -328q0 -198 -128.5 -326.5t-326.5 -128.5q-199 0 -327.5 128.5t-128.5 326.5zM379 1108q0 -66 42 -109t109 -43q66 0 108 43t42 109t-42 107.5t-108 41.5q-67 0 -109 -41.5t-42 -107.5zM442 0l1031 1528 h339l-1030 -1528h-340zM1270 420q0 199 128 328t326 129q200 0 328.5 -128.5t128.5 -328.5q0 -198 -129 -326.5t-328 -128.5q-198 0 -326 128.5t-128 326.5zM1575 420q0 -66 41.5 -108t107.5 -42q67 0 109.5 42t42.5 108t-42.5 108.5t-109.5 42.5q-66 0 -107.5 -42.5 t-41.5 -108.5z" />
<glyph unicode="&#x26;" horiz-adv-x="1759" d="M90 397q0 79 22 143.5t63.5 112t90.5 81.5t113 63q-96 138 -96 276q0 191 140.5 315.5t352.5 124.5q198 0 342.5 -113t167.5 -286l-336 -59q-10 75 -58.5 123.5t-111.5 48.5q-61 0 -103 -45.5t-42 -116.5q0 -112 121 -221q23 -21 198 -180t189 -172q60 87 102 204h350 q-66 -220 -229 -407q22 -22 153.5 -142t161.5 -147h-432l-108 96q-228 -147 -488 -147q-255 0 -409 120t-154 328zM492 426q0 -75 64.5 -124.5t162.5 -49.5t188 49q-18 16 -155.5 140t-155.5 139q-104 -45 -104 -154z" />
<glyph unicode="'" horiz-adv-x="430" d="M74 1180v286h282v-286l-49 -461h-184z" />
<glyph unicode="(" horiz-adv-x="780" d="M80 580q0 285 89.5 543t236.5 405h356q-155 -176 -246.5 -431.5t-91.5 -516.5q0 -263 91.5 -519t246.5 -430h-356q-147 149 -236.5 406.5t-89.5 542.5z" />
<glyph unicode=")" horiz-adv-x="780" d="M18 -369q155 174 246.5 430t91.5 519q0 261 -91.5 516.5t-246.5 431.5h357q147 -147 236 -404.5t89 -543.5q0 -285 -89 -542.5t-236 -406.5h-357z" />
<glyph unicode="*" horiz-adv-x="1058" d="M74 903l225 113l-225 112l131 226l211 -140l-17 252h260l-16 -252l211 140l131 -226l-225 -112l225 -113l-131 -225l-211 141l16 -254h-260l17 254l-211 -141z" />
<glyph unicode="+" horiz-adv-x="1110" d="M74 496v282h299v307h364v-307h299v-282h-299v-312h-364v312h-299z" />
<glyph unicode="," horiz-adv-x="589" d="M74 174q0 91 61.5 151t151.5 60q103 0 166 -81t63 -216q0 -121 -63 -248t-160 -202l-193 47q74 66 121 143.5t47 134.5q-85 0 -139.5 59.5t-54.5 151.5z" />
<glyph unicode="-" horiz-adv-x="987" d="M74 479v314h839v-314h-839z" />
<glyph unicode="." horiz-adv-x="585" d="M74 174q0 92 62 152.5t157 60.5q96 0 157.5 -60t61.5 -153q0 -92 -61 -151.5t-158 -59.5q-95 0 -157 59.5t-62 151.5z" />
<glyph unicode="/" horiz-adv-x="1026" d="M18 -471l652 1937h340l-652 -1937h-340z" />
<glyph unicode="0" horiz-adv-x="1583" d="M100 733q0 225 88 404t246.5 280t358.5 101q199 0 357 -101t246.5 -280t88.5 -404t-88.5 -404t-246.5 -279.5t-357 -100.5q-200 0 -358.5 100.5t-246.5 279.5t-88 404zM524 733q0 -178 75 -292.5t194 -114.5q118 0 193 114.5t75 292.5q0 179 -75 293.5t-193 114.5 q-119 0 -194 -114.5t-75 -293.5z" />
<glyph unicode="1" horiz-adv-x="1011" d="M68 750v413l405 303h375v-1466h-430v1006z" />
<glyph unicode="2" horiz-adv-x="1368" d="M94 0v375l611 381q86 55 125.5 110t39.5 125q0 81 -49.5 130.5t-126.5 49.5q-80 0 -140.5 -70t-72.5 -177l-385 73q15 149 98 268t216 186t290 67q158 0 287.5 -62t206 -176.5t76.5 -257.5q0 -140 -72.5 -252t-202.5 -186l-463 -267h701v-317h-1139z" />
<glyph unicode="3" horiz-adv-x="1366" d="M49 498l387 55q12 -115 70.5 -185.5t150.5 -70.5q86 0 141.5 55.5t55.5 141.5t-55.5 141t-141.5 55q-68 0 -114 -24l-86 229l280 254h-620v317h1106v-231l-314 -320q157 -40 257 -166.5t100 -293.5q0 -221 -171.5 -363.5t-435.5 -142.5t-429.5 153.5t-180.5 395.5z" />
<glyph unicode="4" horiz-adv-x="1411" d="M39 293v229l528 944h600v-856h166v-317h-166v-293h-444l2 293h-686zM449 610h276l-2 516z" />
<glyph unicode="5" horiz-adv-x="1388" d="M88 498l387 55q11 -116 68.5 -186t150.5 -70q84 0 138.5 54.5t54.5 137.5q0 90 -63.5 147.5t-166.5 57.5h-467l58 772h946v-317h-633l-18 -197h252q223 0 364 -135.5t141 -347.5q0 -229 -170 -374.5t-434 -145.5t-428.5 152.5t-179.5 396.5z" />
<glyph unicode="6" horiz-adv-x="1404" d="M74 489q0 169 141 373l418 604h479l-358 -499q60 14 120 14q202 0 328.5 -131.5t126.5 -341.5q0 -249 -177 -404t-462 -155q-274 0 -445 150.5t-171 389.5zM518 508q0 -94 52 -152.5t135 -58.5q80 0 131 59t51 152q0 90 -51 146.5t-131 56.5q-83 0 -135 -56t-52 -147z " />
<glyph unicode="7" horiz-adv-x="1097" d="M27 1120v346h1058v-256l-495 -1210h-457l465 1120h-571z" />
<glyph unicode="8" horiz-adv-x="1456" d="M100 406q0 133 79 238.5t200 131.5q-95 31 -156 125.5t-61 208.5q0 182 160 299t407 117t406 -116t159 -298q0 -115 -61 -210t-156 -126q121 -26 200 -131.5t79 -238.5q0 -196 -176.5 -322.5t-450.5 -126.5q-180 0 -324 57.5t-224.5 160.5t-80.5 231zM549 457 q0 -70 51 -115t129 -45t128 45t50 115q0 69 -50.5 113t-127.5 44q-78 0 -129 -44t-51 -113zM561 1040q0 -66 47.5 -109.5t120.5 -43.5q72 0 119 43.5t47 109.5q0 63 -47 104.5t-119 41.5q-73 0 -120.5 -41.5t-47.5 -104.5z" />
<glyph unicode="9" horiz-adv-x="1404" d="M74 961q0 248 177 402.5t462 154.5q275 0 445.5 -151t170.5 -390q0 -87 -39 -185t-102 -188l-416 -604h-481l360 502q-61 -17 -123 -17q-201 0 -327.5 133t-126.5 343zM518 958q0 -90 50.5 -146t131.5 -56q82 0 134.5 56t52.5 146q0 94 -52.5 153.5t-134.5 59.5 q-82 -1 -132 -60t-50 -153z" />
<glyph unicode=":" horiz-adv-x="585" d="M74 174q0 92 62 152.5t157 60.5q96 0 157.5 -60t61.5 -153q0 -92 -61 -151.5t-158 -59.5q-95 0 -157 59.5t-62 151.5zM74 893q0 92 62 151.5t157 59.5q97 0 158 -59.5t61 -151.5t-61 -151.5t-158 -59.5q-95 0 -157 59.5t-62 151.5z" />
<glyph unicode=";" horiz-adv-x="589" d="M74 174q0 91 61.5 151t151.5 60q103 0 166 -81t63 -216q0 -121 -63 -248t-160 -202l-193 47q74 66 121 143.5t47 134.5q-85 0 -139.5 59.5t-54.5 151.5zM74 893q0 92 62 151.5t157 59.5q97 0 158 -59.5t61 -151.5t-61 -151.5t-158 -59.5q-95 0 -157 59.5t-62 151.5z" />
<glyph unicode="&#x3c;" horiz-adv-x="886" d="M18 354v348l789 371v-332l-512 -213l512 -213v-333z" />
<glyph unicode="=" horiz-adv-x="1110" d="M74 215v299h962v-299h-962zM74 743v299h962v-299h-962z" />
<glyph unicode="&#x3e;" horiz-adv-x="884" d="M80 -18v333l512 213l-512 213v332l788 -371v-348z" />
<glyph unicode="?" horiz-adv-x="1341" d="M80 1030q19 215 188.5 351.5t425.5 136.5q161 0 291.5 -55.5t204.5 -155.5t74 -226q0 -123 -67.5 -215t-182.5 -151q-60 -31 -94.5 -59t-58 -77t-23.5 -118h-351q0 151 47.5 242t157.5 163q36 23 52 35t42 35.5t37 48.5t11 55q0 63 -45 104.5t-111 41.5q-82 0 -137 -63.5 t-66 -164.5zM442 174q0 92 62.5 151.5t157.5 59.5q97 0 158 -59.5t61 -151.5t-61 -151.5t-158 -59.5q-95 0 -157.5 59.5t-62.5 151.5z" />
<glyph unicode="@" horiz-adv-x="2125" d="M80 532q0 255 126.5 458.5t351 318t505.5 114.5q282 0 507 -114.5t351.5 -318t126.5 -458.5q0 -160 -48 -278.5t-151.5 -188t-253.5 -69.5q-128 0 -218 62.5t-103 160.5q-44 -61 -132 -98t-186 -37q-168 0 -272 124t-104 324q0 196 136.5 323.5t346.5 127.5 q216 0 350.5 -128.5t134.5 -334.5v-178q0 -28 2.5 -48t10.5 -43.5t26.5 -36.5t46.5 -13q125 0 125 331q0 187 -89.5 336.5t-248.5 233.5t-358 84q-198 0 -357 -84t-249 -233.5t-90 -336.5q0 -179 70 -322t195 -223.5t281 -80.5q83 0 171.5 22.5t148.5 57.5v-269 q-62 -33 -150.5 -53t-169.5 -20q-177 0 -331 66.5t-264.5 183.5t-174 282.5t-63.5 355.5zM899 532q0 -73 46 -120t118 -47t119 47t47 120t-47 120.5t-119 47.5t-118 -47t-46 -121z" />
<glyph unicode="A" horiz-adv-x="1601" d="M18 0l459 1466h647l459 -1466h-465l-63 221h-508l-64 -221h-465zM633 532h338l-170 560z" />
<glyph unicode="B" horiz-adv-x="1597" d="M143 0v1466h758q247 0 401 -114.5t154 -290.5q0 -118 -56.5 -203t-150.5 -113q113 -26 180.5 -121t67.5 -231q0 -180 -152 -286.5t-401 -106.5h-801zM588 317h258q86 0 139 39t53 101q0 68 -53 110.5t-139 42.5h-258v-293zM588 883h227q82 0 132 36.5t50 96.5t-50 96.5 t-132 36.5h-227v-266z" />
<glyph unicode="C" horiz-adv-x="1714" d="M80 733q0 168 60 314t165.5 249.5t254 162.5t319.5 59q197 0 362 -76.5t268 -212.5t121 -307l-409 -43q-25 114 -117.5 188t-210.5 74q-164 0 -266.5 -113t-102.5 -295q0 -181 102.5 -294t264.5 -113q118 0 211 72.5t119 185.5l413 -47q-16 -168 -118.5 -302.5t-269 -210 t-365.5 -75.5q-172 0 -321 59t-254.5 162t-165.5 249t-60 314z" />
<glyph unicode="D" horiz-adv-x="1667" d="M143 0v1466h607q249 0 440 -91t295 -257.5t104 -384.5t-104 -384.5t-295 -257.5t-440 -91h-607zM573 332h177q178 0 286.5 109.5t108.5 291.5t-108.5 292t-286.5 110h-177v-803z" />
<glyph unicode="E" horiz-adv-x="1288" d="M143 0v1466h1047v-346h-619v-223h537v-299h-537v-250h639v-348h-1067z" />
<glyph unicode="F" horiz-adv-x="1239" d="M143 0v1466h1043v-376h-598v-277h477v-328h-477v-485h-445z" />
<glyph unicode="G" horiz-adv-x="1769" d="M80 733q0 168 62 314t170.5 249.5t261.5 162.5t329 59t327.5 -63t251.5 -175t134 -254l-410 -76q-26 84 -111.5 137.5t-193.5 53.5q-164 0 -270.5 -115t-106.5 -293q0 -177 111.5 -292t284.5 -115q136 0 234.5 75t107.5 187h-375v258h799q6 -56 6 -109q0 -131 -35 -250 q-49 -167 -152.5 -285t-259 -185.5t-342.5 -67.5q-176 0 -329 59t-261.5 162t-170.5 249t-62 314z" />
<glyph unicode="H" horiz-adv-x="1660" d="M141 0v1466h445v-536h489v536h445v-1466h-445v584h-489v-584h-445z" />
<glyph unicode="I" horiz-adv-x="731" d="M143 0v1466h445v-1466h-445z" />
<glyph unicode="J" horiz-adv-x="1032" d="M68 0v330q84 -23 180 -23q94 0 152.5 63t58.5 167v929h444v-989q0 -230 -148.5 -374t-377.5 -144q-178 0 -309 41z" />
<glyph unicode="K" horiz-adv-x="1542" d="M143 0v1466h445v-567l413 567h523l-543 -698l549 -768h-524l-418 623v-623h-445z" />
<glyph unicode="L" horiz-adv-x="1191" d="M143 0v1466h445v-1089h536v-377h-981z" />
<glyph unicode="M" horiz-adv-x="2134" d="M143 0v1466h568l356 -997l346 997h578v-1466h-430v940l-330 -940h-328l-330 940v-940h-430z" />
<glyph unicode="N" horiz-adv-x="1665" d="M143 0v1466h463l502 -931v931h414v-1466h-463l-502 930v-930h-414z" />
<glyph unicode="O" horiz-adv-x="1806" d="M80 733q0 231 102.5 409.5t290 277t430.5 98.5t431 -98.5t291.5 -277t103.5 -409.5t-103.5 -409.5t-291.5 -276.5t-431 -98q-182 0 -335.5 57t-260.5 159.5t-167 248.5t-60 319zM524 733q0 -181 105 -293t274 -114q170 0 275.5 112.5t105.5 294.5t-105.5 295t-275.5 113 q-169 0 -274 -113t-105 -295z" />
<glyph unicode="P" horiz-adv-x="1517" d="M143 0v1466h713q269 0 436.5 -146t167.5 -382t-169 -383t-439 -147h-281v-408h-428zM571 725h197q110 0 179 59t69 154q0 94 -69 152.5t-179 58.5h-197v-424z" />
<glyph unicode="Q" horiz-adv-x="1806" d="M80 733q0 231 102.5 409.5t290 277t430.5 98.5t431 -98.5t291.5 -277t103.5 -409.5q0 -198 -78 -359.5t-219 -267.5l280 -393h-407l-187 260q-99 -24 -215 -24q-182 0 -335.5 57t-260.5 159.5t-167 248.5t-60 319zM524 733q0 -181 105 -293t274 -114q169 0 275 113 t106 294q0 182 -105.5 295t-275.5 113q-169 0 -274 -113t-105 -295z" />
<glyph unicode="R" horiz-adv-x="1613" d="M143 0v1466h748q270 0 437 -140.5t167 -369.5q0 -145 -81.5 -255.5t-221.5 -165.5l344 -535h-489l-254 479h-205v-479h-445zM588 766h219q104 0 174 52t70 138q0 89 -69.5 141t-174.5 52h-219v-383z" />
<glyph unicode="S" horiz-adv-x="1486" d="M90 483h385q2 -94 80.5 -155.5t198.5 -61.5q97 0 156 40.5t59 103.5q0 41 -30 68.5t-80 43t-115.5 26.5t-137.5 23t-144.5 29t-138 48.5t-115.5 76.5t-80 119t-30 170q0 226 175.5 365t453.5 139q276 0 455.5 -144.5t181.5 -367.5h-371q0 84 -72.5 139t-181.5 55 q-94 0 -152.5 -37t-58.5 -96q0 -39 30 -65t80 -40.5t115.5 -25t138 -22.5t144.5 -28.5t137.5 -48.5t115.5 -77t80 -119t30 -170q0 -231 -184.5 -376.5t-475.5 -145.5q-186 0 -334.5 68.5t-231.5 190.5t-83 275z" />
<glyph unicode="T" horiz-adv-x="1323" d="M27 1104v362h1269v-362h-413v-1104h-443v1104h-413z" />
<glyph unicode="U" horiz-adv-x="1636" d="M125 614v852h444v-835q0 -122 66 -210.5t184 -94.5q110 0 179 85t69 220v835h444v-852q0 -296 -191.5 -480.5t-500.5 -184.5q-205 0 -363 83.5t-244.5 235t-86.5 346.5z" />
<glyph unicode="V" horiz-adv-x="1587" d="M18 1468l459 -2l318 -1140l315 1140h461l-436 -1466h-680z" />
<glyph unicode="W" horiz-adv-x="2529" d="M43 1466h449l276 -1075l279 1075h440l278 -1075l275 1075h446l-393 -1466h-614l-213 885l-215 -885h-613z" />
<glyph unicode="X" horiz-adv-x="1736" d="M39 0l475 774l-467 692h508l307 -460l312 460h520l-498 -692l504 -774h-520l-318 530l-313 -530h-510z" />
<glyph unicode="Y" horiz-adv-x="1482" d="M16 1466h463l269 -585l247 585h471l-497 -966v-500h-445v500z" />
<glyph unicode="Z" horiz-adv-x="1384" d="M88 0v291l621 831h-600v344h1167v-288l-600 -834h620v-344h-1208z" />
<glyph unicode="[" horiz-adv-x="866" d="M143 -369v1897h705v-260h-328v-1377h328v-260h-705z" />
<glyph unicode="\" horiz-adv-x="1028" d="M18 1466h340l652 -1937h-340z" />
<glyph unicode="]" horiz-adv-x="866" d="M18 -109h328v1377h-328v260h705v-1897h-705v260z" />
<glyph unicode="^" horiz-adv-x="1261" d="M74 819l366 647h381l367 -647h-357l-200 410l-197 -410h-360z" />
<glyph unicode="_" horiz-adv-x="1024" d="M0 0h1024v-266h-1024v266z" />
<glyph unicode="`" horiz-adv-x="722" d="M74 1540h350l225 -350h-276z" />
<glyph unicode="a" horiz-adv-x="1392" d="M74 528q0 254 133 412t348 158q205 0 326 -176v135h393v-1057h-393v135q-121 -176 -326 -176q-215 0 -348 157.5t-133 411.5zM469 528q0 -97 57.5 -161t147.5 -64q89 0 147 64t58 161q0 98 -58 162t-147 64q-90 0 -147.5 -63.5t-57.5 -162.5z" />
<glyph unicode="b" horiz-adv-x="1372" d="M117 0v1528h395v-582q120 152 313 152q211 0 342 -158t131 -412t-131 -411.5t-342 -157.5q-195 0 -315 152v-111h-393zM496 528q0 -96 57 -158.5t147 -62.5q89 0 147 62t58 159t-58 160.5t-147 63.5q-90 0 -147 -63.5t-57 -160.5z" />
<glyph unicode="c" horiz-adv-x="1292" d="M74 528q0 247 167.5 408.5t424.5 161.5q143 0 265.5 -55.5t200.5 -155.5t93 -225l-363 -48q-15 68 -69 112t-123 44q-86 0 -144 -68q-57 -67 -57 -170q0 -108 56.5 -176.5t144.5 -68.5q69 0 123 43.5t69 111.5l363 -43q-25 -191 -184 -315.5t-375 -124.5 q-167 0 -302.5 73t-212.5 203.5t-77 292.5z" />
<glyph unicode="d" horiz-adv-x="1372" d="M74 528q0 254 131 412t342 158q191 0 315 -152v582h393v-1528h-393v111q-117 -152 -315 -152q-211 0 -342 157.5t-131 411.5zM469 528q0 -97 58 -159t147 -62t147 63t58 158q0 97 -58 160.5t-147 63.5q-90 0 -147.5 -63.5t-57.5 -160.5z" />
<glyph unicode="e" horiz-adv-x="1325" d="M74 532q0 251 167.5 408.5t430.5 157.5q262 0 420.5 -157t158.5 -413q0 -66 -4 -106h-768q21 -85 74 -131.5t133 -46.5q63 0 110 30t68 78l342 -55q-34 -148 -186 -243t-354 -95q-262 0 -427 158.5t-165 414.5zM477 629h379q-6 77 -60 131.5t-132 54.5q-74 0 -123 -50 t-64 -136z" />
<glyph unicode="f" horiz-adv-x="874" d="M74 764v293h135v84q0 193 104 310.5t273 117.5q122 0 235 -37v-320q-50 13 -96 13q-55 0 -89 -29t-34 -76v-63h219v-293h-219v-764h-393v764h-135z" />
<glyph unicode="g" horiz-adv-x="1372" d="M74 528q0 252 133 411t338 159q197 0 317 -152v111h393v-1051q0 -236 -159 -377t-420 -141q-221 0 -377.5 114.5t-181.5 293.5l344 41q17 -65 72.5 -107.5t125.5 -42.5q91 0 147 63t56 170v115q-122 -141 -317 -141q-205 0 -338 149t-133 385zM469 528q0 -96 57.5 -158.5 t147.5 -62.5q89 0 147 63t58 158q0 98 -58 162t-147 64q-90 0 -147.5 -63.5t-57.5 -162.5z" />
<glyph unicode="h" d="M117 0v1528h395v-582q50 72 132.5 112t176.5 40q169 0 273 -112t104 -294v-692h-395v588q0 74 -38.5 120t-102.5 46q-65 0 -107.5 -48t-42.5 -124v-582h-395z" />
<glyph unicode="i" horiz-adv-x="673" d="M117 1378q0 92 62.5 151.5t158.5 59.5q95 0 157 -59.5t62 -151.5q0 -93 -61.5 -153t-157.5 -60t-158.5 60t-62.5 153zM139 0v1057h396v-1057h-396z" />
<glyph unicode="j" horiz-adv-x="688" d="M-104 -446l2 303q67 -13 116 -13q63 2 101.5 39t38.5 97v1077h393v-1129q0 -186 -108 -298.5t-285 -112.5q-145 0 -258 37zM131 1378q0 92 62 151.5t157 59.5q97 0 158 -59.5t61 -151.5q0 -94 -61 -153.5t-158 -59.5q-96 0 -157.5 60t-61.5 153z" />
<glyph unicode="k" horiz-adv-x="1300" d="M117 0v1528h395v-846l307 375h461l-424 -502l434 -555h-465l-313 424v-424h-395z" />
<glyph unicode="l" horiz-adv-x="626" d="M117 0v1528h393v-1528h-393z" />
<glyph unicode="m" horiz-adv-x="1966" d="M117 0v1057h379v-131q46 83 130 127.5t183 44.5q107 0 191 -47t128 -131q46 81 144 129.5t205 48.5q176 0 284.5 -113t108.5 -295v-690h-395v586q0 71 -39.5 118t-106.5 50q-67 0 -107 -47t-40 -121v-586h-394v586q0 75 -38 121.5t-99 46.5q-64 0 -101.5 -46t-37.5 -122 v-586h-395z" />
<glyph unicode="n" d="M117 0v1057h381v-152q59 91 143.5 142t185.5 51q162 0 266.5 -118.5t104.5 -301.5v-678h-395v588q0 74 -37.5 120t-101.5 46q-65 0 -108.5 -48t-43.5 -124v-582h-395z" />
<glyph unicode="o" horiz-adv-x="1343" d="M72 528q0 255 166 412.5t434 157.5q267 0 432.5 -157.5t165.5 -412.5t-165.5 -412t-432.5 -157q-269 0 -434.5 157t-165.5 412zM467 528q0 -100 57 -162.5t148 -62.5t148 62.5t57 162.5t-57 163t-148 63t-148 -63t-57 -163z" />
<glyph unicode="p" horiz-adv-x="1372" d="M117 -471v1528h393v-109q121 150 315 150q211 0 342 -158t131 -412t-131 -411.5t-342 -157.5q-193 0 -313 152v-582h-395zM496 528q0 -96 57 -158.5t147 -62.5q89 0 147 63t58 158q0 97 -58 160.5t-147 63.5q-90 0 -147 -63.5t-57 -160.5z" />
<glyph unicode="q" horiz-adv-x="1372" d="M74 528q0 254 131 412t342 158q197 0 315 -150v109h393v-1528h-393v582q-124 -152 -315 -152q-211 0 -342 157.5t-131 411.5zM469 528q0 -96 57.5 -158.5t147.5 -62.5q89 0 147 63t58 158q0 97 -58 160.5t-147 63.5t-147 -63.5t-58 -160.5z" />
<glyph unicode="r" horiz-adv-x="925" d="M117 0v1057h379v-133q43 79 118.5 126.5t159.5 47.5q49 0 119 -25v-350q-100 43 -186 43q-87 0 -141 -61t-54 -160v-545h-395z" />
<glyph unicode="s" horiz-adv-x="1175" d="M76 346h319q0 -61 54 -101t137 -40q64 1 108 29q42 27 41 65q0 37 -28 57.5t-74 27.5t-104.5 15.5t-120 15t-120 27.5t-104.5 53t-74 92t-28 142q1 108 64 194.5t173 134.5t246 48q219 0 361.5 -105t144.5 -266l-334 2q-2 50 -50 82.5t-120 32.5q-58 0 -97.5 -26 t-39.5 -64q0 -30 29.5 -50.5t77.5 -29.5t109.5 -19t125.5 -19t125.5 -30.5t109.5 -51.5t77.5 -84t29.5 -126q0 -176 -149 -288.5t-387 -112.5q-218 0 -360 111.5t-142 283.5z" />
<glyph unicode="t" horiz-adv-x="880" d="M53 764v293h152l39 276h338v-276h221v-293h-221v-330q0 -60 34 -96.5t91 -36.5q51 0 100 12v-317q-116 -37 -238 -37q-170 0 -275.5 120t-105.5 308v377h-135z" />
<glyph unicode="u" d="M96 381v676h396v-586q0 -76 37.5 -122t101.5 -46q65 0 108 49t43 125v580h396v-1057h-379v152q-60 -91 -145.5 -142t-186.5 -51q-163 0 -267 118.5t-104 303.5z" />
<glyph unicode="v" horiz-adv-x="1302" d="M18 1057h420l213 -760l213 760h420l-350 -1057h-565z" />
<glyph unicode="w" horiz-adv-x="1933" d="M39 1057h407l168 -660l183 660h340l198 -670l168 670h393l-301 -1057h-485l-143 596l-142 -596h-487z" />
<glyph unicode="x" horiz-adv-x="1380" d="M39 0l352 549l-336 508h467l168 -295l168 295h469l-338 -508l352 -549h-479l-172 328l-172 -328h-479z" />
<glyph unicode="y" horiz-adv-x="1298" d="M18 1057h428l244 -582l184 582h406l-401 -1106q-82 -226 -187 -330t-256 -104q-124 0 -227 39v276q43 -16 113 -16q89 0 139 37.5t80 128.5z" />
<glyph unicode="z" horiz-adv-x="1177" d="M88 0v256l459 487h-438v314h960v-256l-422 -488h443v-313h-1002z" />
<glyph unicode="{" horiz-adv-x="901" d="M80 416v348h20q63 0 101.5 38t38.5 101v352q0 123 74.5 198t197.5 75h371v-260h-123q-64 0 -104 -40t-40 -104v-256q0 -117 -71 -193t-189 -83l-20 -2l20 -2q118 -6 189 -82.5t71 -194.5v-276q0 -65 40 -104.5t104 -39.5h123v-260h-371q-123 0 -197.5 75t-74.5 198v372 q0 63 -38.5 101.5t-101.5 38.5h-20z" />
<glyph unicode="|" horiz-adv-x="632" d="M143 -471v1999h346v-1999h-346z" />
<glyph unicode="}" horiz-adv-x="901" d="M18 -109h123q65 0 104.5 39.5t39.5 104.5v276q0 118 71 194.5t187 82.5l20 2l-20 2q-117 7 -187.5 83t-70.5 193v256q0 64 -39.5 104t-104.5 40h-123v260h371q123 0 198 -75t75 -198v-352q0 -63 38 -101t101 -38h20v-348h-20q-63 0 -101 -38.5t-38 -101.5v-372 q0 -123 -75 -198t-198 -75h-371v260z" />
<glyph unicode="~" horiz-adv-x="1314" d="M74 711q69 76 162 124t170 48q66 0 145 -33.5t139 -73t128.5 -73t115.5 -33.5q56 0 110.5 27t90.5 69l106 -252q-67 -77 -159 -124.5t-171 -47.5q-66 0 -147 33.5t-143 73t-133 73t-121 33.5q-48 0 -99 -27t-90 -71z" />
<glyph unicode="&#xa1;" horiz-adv-x="700" d="M131 821q0 92 62 151.5t157 59.5t157 -59.5t62 -151.5t-62 -151.5t-157 -59.5t-157 59.5t-62 151.5zM150 -70l104 555h195l102 -555v-401h-401v401z" />
<glyph unicode="&#xa2;" horiz-adv-x="1292" d="M74 528q0 196 108.5 342.5t290.5 200.5v193h334v-181q169 -37 283.5 -151.5t134.5 -269.5l-363 -48q-15 68 -69 112t-123 44q-87 0 -144.5 -68.5t-56.5 -173.5q0 -104 56.5 -172.5t144.5 -68.5q69 0 123 43.5t69 111.5l363 -43q-20 -158 -135 -272.5t-283 -151.5v-215 h-334v228q-181 55 -290 199.5t-109 340.5z" />
<glyph unicode="&#xa3;" horiz-adv-x="1390" d="M74 0v354q185 56 215 264h-195v240h205v193q0 204 136.5 335.5t357.5 131.5q216 0 360.5 -124.5t163.5 -318.5l-348 -55q-8 75 -46.5 122.5t-95.5 47.5q-54 0 -85 -43.5t-31 -112.5v-176h419v-240h-442q-47 -214 -256 -305h883v-313h-1241z" />
<glyph unicode="&#xa4;" horiz-adv-x="1486" d="M80 90l143 160q-76 124 -76 278q0 156 76 277l-131 156l227 182l127 -146q134 64 302 64q169 0 301 -66l125 148l229 -182l-133 -156q76 -121 76 -277q0 -154 -76 -278l139 -158l-235 -178l-125 145q-132 -63 -301 -63q-170 0 -302 63l-141 -145zM543 528 q0 -106 56.5 -171.5t148.5 -65.5q91 0 147.5 65.5t56.5 171.5t-56.5 173t-147.5 67t-148 -67t-57 -173z" />
<glyph unicode="&#xa5;" horiz-adv-x="1589" d="M39 1466h479l283 -618l264 618h485l-442 -823h293v-188h-379v-103h379v-188h-379v-164h-444v164h-385v188h385v103h-385v188h296z" />
<glyph unicode="&#xa7;" horiz-adv-x="1331" d="M90 504q0 96 59.5 170.5t159.5 103.5q-73 37 -116 108t-43 171q0 172 139 279.5t366 107.5q196 0 334 -89t176 -247l-329 -45q-9 67 -62 110.5t-127 43.5q-64 0 -105.5 -27t-41.5 -68q0 -20 9 -37t31.5 -31t42 -23.5t59.5 -20.5t63.5 -16.5t74.5 -16.5q61 -13 92.5 -20.5 t89 -24t89.5 -31t74 -39.5t64 -52.5t38 -66t16 -84.5q0 -100 -69.5 -174t-184.5 -104q82 -39 131 -112.5t49 -176.5q0 -178 -147.5 -293.5t-374.5 -115.5q-199 0 -341 98.5t-165 251.5l326 45q11 -66 67.5 -110t131.5 -44q64 0 106.5 26.5t42.5 69.5q0 24 -9.5 43.5 t-32 34.5t-43 26t-60.5 22t-65 17t-75 17q-54 11 -89.5 19.5t-86 24.5t-84 31.5t-70.5 40.5t-59 53.5t-36.5 68.5t-14.5 86zM438 608q0 -83 172 -119q69 -12 138 -30q57 6 93 33.5t36 64.5q0 80 -146 105q-13 3 -88.5 21.5t-91.5 21.5q-48 -4 -80.5 -33.5t-32.5 -63.5z" />
<glyph unicode="&#xa8;" horiz-adv-x="1081" d="M74 1327q0 78 53.5 129t136.5 51t136 -51t53 -129q0 -80 -53 -131t-136 -51t-136.5 51t-53.5 131zM627 1327q0 78 54 129t136 51q83 0 136 -51t53 -129q0 -80 -53 -131t-136 -51q-82 0 -136 51.5t-54 130.5z" />
<glyph unicode="&#xa9;" horiz-adv-x="2113" d="M80 537q0 274 122 484.5t344 326.5t511 116t511.5 -115.5t345 -326.5t122.5 -485q0 -209 -71.5 -385t-199 -299t-310 -192t-398.5 -69t-398.5 69t-309.5 192t-198 299t-71 385zM340 537q0 -321 198 -519t519 -198t519 198t198 519q0 206 -89.5 365t-252.5 247t-375 88 t-375 -88t-252.5 -247t-89.5 -365zM520 528q0 241 153.5 397t391.5 156q202 0 348.5 -119.5t171.5 -302.5l-264 -41q-20 96 -89.5 158t-158.5 62q-110 0 -184 -87t-74 -223q0 -133 74.5 -221t185.5 -88q90 0 160.5 64t89.5 163l256 -47q-19 -185 -163 -304.5t-349 -119.5 q-237 0 -393 154t-156 399z" />
<glyph unicode="&#xab;" horiz-adv-x="1499" d="M74 543l348 514h403l-364 -514l364 -543h-403zM670 543l350 514h401l-364 -514l364 -543h-401z" />
<glyph unicode="&#xac;" horiz-adv-x="1316" d="M74 485v312h1149v-654h-279v342h-870z" />
<glyph unicode="&#xad;" horiz-adv-x="987" d="M74 479v314h839v-314h-839z" />
<glyph unicode="&#xae;" horiz-adv-x="2113" d="M80 537q0 274 122 484.5t344 326.5t511 116t511.5 -115.5t345 -326.5t122.5 -485q0 -209 -71.5 -385t-199 -299t-310 -192t-398.5 -69t-398.5 69t-309.5 192t-198 299t-71 385zM340 537q0 -321 198 -519t519 -198t519 198t198 519q0 206 -89.5 365t-252.5 247t-375 88 t-375 -88t-252.5 -247t-89.5 -365zM635 20v1037h500q178 0 288.5 -89.5t110.5 -232.5q0 -106 -62.5 -183.5t-171.5 -111.5l218 -420h-314l-166 394h-125v-394h-278zM913 578h166q75 0 122.5 40.5t47.5 110.5q0 69 -45 109.5t-129 40.5h-162v-301z" />
<glyph unicode="&#xaf;" horiz-adv-x="874" d="M74 1219v229h727v-229h-727z" />
<glyph unicode="&#xb0;" horiz-adv-x="1118" d="M74 1114q0 203 133.5 328t351.5 125t351.5 -125t133.5 -328q0 -202 -133.5 -326t-351.5 -124t-351.5 124t-133.5 326zM352 1114q0 -94 56.5 -150.5t150.5 -56.5t150.5 56.5t56.5 150.5t-56.5 150.5t-150.5 56.5t-150.5 -56.5t-56.5 -150.5z" />
<glyph unicode="&#xb1;" horiz-adv-x="1110" d="M74 0v256h962v-256h-962zM74 604v256h327v197h308v-197h327v-256h-327v-203h-308v203h-327z" />
<glyph unicode="&#xb4;" horiz-adv-x="753" d="M74 1190l225 350h350l-299 -350h-276z" />
<glyph unicode="&#xb6;" horiz-adv-x="1724" d="M74 1032q2 195 130 314.5t337 119.5h1061v-276h-201v-1612h-344v1612h-172v-1612h-344v1018q-212 0 -340.5 119.5t-126.5 316.5z" />
<glyph unicode="&#xb7;" horiz-adv-x="585" d="M74 637q0 92 62 151.5t157 59.5q97 0 158 -59.5t61 -151.5q0 -93 -61.5 -153t-157.5 -60q-95 0 -157 60.5t-62 152.5z" />
<glyph unicode="&#xb8;" horiz-adv-x="641" d="M74 -418l106 82q12 -30 40 -48.5t59 -18.5q35 0 55 20t20 51q0 34 -30.5 55t-77.5 21h-105l54 307h200l-37 -209q95 0 152 -53t57 -141q0 -91 -73 -146t-193 -55q-78 0 -140 37.5t-87 97.5z" />
<glyph unicode="&#xbb;" horiz-adv-x="1497" d="M78 0l364 543l-364 514h401l350 -514l-350 -543h-401zM674 0l364 543l-364 514h401l350 -514l-350 -543h-401z" />
<glyph unicode="&#xbf;" horiz-adv-x="1341" d="M80 -55q0 122 67 213.5t181 150.5q92 46 135 100t43 154h348q0 -151 -47.5 -241.5t-157.5 -161.5q-78 -53 -103 -82q-38 -44 -38 -94q0 -63 45 -104.5t113 -41.5q80 0 135 64t67 164l396 -72q-20 -215 -190.5 -351.5t-426.5 -136.5q-245 0 -406 124t-161 315zM469 850 q0 94 61 153.5t158 59.5q96 0 157.5 -60t61.5 -153q0 -92 -62 -151.5t-157 -59.5q-97 0 -158 59.5t-61 151.5z" />
<glyph unicode="&#xc0;" horiz-adv-x="1601" d="M18 0l459 1466h647l459 -1466h-465l-63 221h-508l-64 -221h-465zM348 1931h359l233 -305h-293zM633 532h338l-170 560z" />
<glyph unicode="&#xc1;" horiz-adv-x="1601" d="M18 0l459 1466h647l459 -1466h-465l-63 221h-508l-64 -221h-465zM633 532h338l-170 560zM633 1626l233 305h357l-297 -305h-293z" />
<glyph unicode="&#xc2;" horiz-adv-x="1601" d="M18 0l459 1466h647l459 -1466h-465l-63 221h-508l-64 -221h-465zM408 1622l202 309h381l203 -309h-258l-135 162l-135 -162h-258zM633 532h338l-170 560z" />
<glyph unicode="&#xc3;" horiz-adv-x="1601" d="M18 0l459 1466h647l459 -1466h-465l-63 221h-508l-64 -221h-465zM360 1788q31 90 111 150.5t174 60.5q49 0 96.5 -16.5t78 -37t64 -37t58.5 -16.5q32 0 61 22t48 58l182 -96q-30 -88 -114.5 -149.5t-182.5 -61.5q-51 0 -99.5 16.5t-77.5 37t-61.5 37t-56.5 16.5 q-55 0 -100 -82zM633 532h338l-170 560z" />
<glyph unicode="&#xc4;" horiz-adv-x="1601" d="M18 0l459 1466h647l459 -1466h-465l-63 221h-508l-64 -221h-465zM340 1800q0 83 53 136t135 53q83 0 137 -53t54 -136t-53.5 -135.5t-137.5 -52.5q-82 0 -135 52.5t-53 135.5zM633 532h338l-170 560zM883 1800q0 83 53.5 136t136.5 53t136 -53t53 -136t-53 -135.5 t-136 -52.5t-136.5 52.5t-53.5 135.5z" />
<glyph unicode="&#xc5;" horiz-adv-x="1601" d="M18 0l459 1466h647l459 -1466h-465l-63 221h-508l-64 -221h-465zM514 1812q0 114 78.5 183t206.5 69t207 -69t79 -183q0 -113 -78.5 -182t-205.5 -69q-128 0 -207.5 69.5t-79.5 181.5zM633 532h338l-170 560zM727 1812q0 -32 20.5 -52.5t53.5 -20.5q32 0 52.5 20.5 t20.5 52.5q0 34 -20 54t-53 20q-34 0 -54 -20t-20 -54z" />
<glyph unicode="&#xc6;" horiz-adv-x="2097" d="M18 0l721 1466h1260v-346h-541v-227h459v-299h-459v-246h561v-348h-956v211h-453l-100 -211h-492zM750 510h313v659z" />
<glyph unicode="&#xc7;" horiz-adv-x="1714" d="M80 733q0 168 60 314t165.5 249.5t254 162.5t319.5 59q197 0 362 -76.5t268 -212.5t121 -307l-409 -43q-25 114 -117.5 188t-210.5 74q-164 0 -266.5 -113t-102.5 -295q0 -181 102.5 -294t264.5 -113q118 0 211 72.5t119 185.5l413 -47q-22 -232 -202 -392.5t-447 -189.5 l-20 -113q95 0 152 -53t57 -141q0 -91 -73.5 -146t-193.5 -55q-78 0 -140 37.5t-87 97.5l106 82q12 -30 40 -48.5t59 -18.5q35 0 55.5 20t20.5 51q0 34 -30.5 55t-78.5 21h-104l36 209q-205 21 -365 126t-249.5 275.5t-89.5 378.5z" />
<glyph unicode="&#xc8;" horiz-adv-x="1288" d="M143 0v1466h1047v-346h-619v-223h537v-299h-537v-250h639v-348h-1067zM256 1931h358l234 -305h-293z" />
<glyph unicode="&#xc9;" horiz-adv-x="1288" d="M143 0v1466h1047v-346h-619v-223h537v-299h-537v-250h639v-348h-1067zM500 1626l233 305h357l-297 -305h-293z" />
<glyph unicode="&#xca;" horiz-adv-x="1288" d="M143 0v1466h1047v-346h-619v-223h537v-299h-537v-250h639v-348h-1067zM274 1622l203 309h381l203 -309h-258l-135 162l-136 -162h-258z" />
<glyph unicode="&#xcb;" horiz-adv-x="1288" d="M143 0v1466h1047v-346h-619v-223h537v-299h-537v-250h639v-348h-1067zM207 1800q0 83 53 136t135 53q83 0 137 -53t54 -136t-53.5 -135.5t-137.5 -52.5q-82 0 -135 52.5t-53 135.5zM750 1800q0 83 53 136t135 53q83 0 136.5 -53t53.5 -136t-53.5 -135.5t-136.5 -52.5 q-82 0 -135 52.5t-53 135.5z" />
<glyph unicode="&#xcc;" horiz-adv-x="731" d="M-88 1931h358l234 -305h-293zM143 0v1466h445v-1466h-445z" />
<glyph unicode="&#xcd;" horiz-adv-x="739" d="M143 0v1466h445v-1466h-445zM199 1626l231 305h358l-299 -305h-290z" />
<glyph unicode="&#xce;" horiz-adv-x="731" d="M-27 1610l201 309h383l201 -309h-256l-135 164l-138 -164h-256zM143 0v1466h445v-1466h-445z" />
<glyph unicode="&#xcf;" horiz-adv-x="716" d="M-102 1800q0 83 53.5 136t136.5 53t135.5 -53t52.5 -136t-52.5 -135.5t-135.5 -52.5t-136.5 52.5t-53.5 135.5zM137 0v1466h445v-1466h-445zM440 1800q0 83 54 136t137 53t135.5 -53t52.5 -136t-52.5 -135.5t-135.5 -52.5q-84 0 -137.5 52.5t-53.5 135.5z" />
<glyph unicode="&#xd1;" horiz-adv-x="1665" d="M143 0v1466h463l502 -931v931h414v-1466h-463l-502 930v-930h-414zM395 1788q31 90 111 150.5t174 60.5q49 0 96.5 -16.5t78 -37t64 -37t58.5 -16.5q65 0 108 80l183 -96q-30 -88 -114.5 -149.5t-182.5 -61.5q-51 0 -99.5 16.5t-77.5 37t-61.5 37t-56.5 16.5 q-56 0 -101 -82z" />
<glyph unicode="&#xd2;" horiz-adv-x="1806" d="M80 733q0 231 102.5 409.5t290 277t430.5 98.5t431 -98.5t291.5 -277t103.5 -409.5t-103.5 -409.5t-291.5 -276.5t-431 -98q-182 0 -335.5 57t-260.5 159.5t-167 248.5t-60 319zM457 1931h358l234 -305h-293zM524 733q0 -181 105 -293t274 -114q170 0 275.5 112.5 t105.5 294.5t-105.5 295t-275.5 113q-169 0 -274 -113t-105 -295z" />
<glyph unicode="&#xd3;" horiz-adv-x="1806" d="M80 733q0 231 102.5 409.5t290 277t430.5 98.5t431 -98.5t291.5 -277t103.5 -409.5t-103.5 -409.5t-291.5 -276.5t-431 -98q-182 0 -335.5 57t-260.5 159.5t-167 248.5t-60 319zM524 733q0 -181 105 -293t274 -114q170 0 275.5 112.5t105.5 294.5t-105.5 295t-275.5 113 q-169 0 -274 -113t-105 -295zM731 1626l232 305h358l-299 -305h-291z" />
<glyph unicode="&#xd4;" horiz-adv-x="1806" d="M80 733q0 231 102.5 409.5t290 277t430.5 98.5t431 -98.5t291.5 -277t103.5 -409.5t-103.5 -409.5t-291.5 -276.5t-431 -98q-182 0 -335.5 57t-260.5 159.5t-167 248.5t-60 319zM510 1622l203 309h381l202 -309h-256l-137 162l-135 -162h-258zM524 733q0 -181 105 -293 t274 -114q170 0 275.5 112.5t105.5 294.5t-105.5 295t-275.5 113q-169 0 -274 -113t-105 -295z" />
<glyph unicode="&#xd5;" horiz-adv-x="1806" d="M80 733q0 231 102.5 409.5t290 277t430.5 98.5t431 -98.5t291.5 -277t103.5 -409.5t-103.5 -409.5t-291.5 -276.5t-431 -98q-182 0 -335.5 57t-260.5 159.5t-167 248.5t-60 319zM463 1788q31 90 111 150.5t174 60.5q49 0 96.5 -16.5t78 -37t65 -37t59.5 -16.5 q30 0 59.5 22t46.5 58l184 -96q-31 -88 -116 -149.5t-183 -61.5q-51 0 -99.5 16.5t-77.5 37t-61.5 37t-56.5 16.5q-56 0 -98 -82zM524 733q0 -181 105 -293t274 -114q170 0 275.5 112.5t105.5 294.5t-105.5 295t-275.5 113q-169 0 -274 -113t-105 -295z" />
<glyph unicode="&#xd6;" horiz-adv-x="1806" d="M80 733q0 231 102.5 409.5t290 277t430.5 98.5t431 -98.5t291.5 -277t103.5 -409.5t-103.5 -409.5t-291.5 -276.5t-431 -98q-182 0 -335.5 57t-260.5 159.5t-167 248.5t-60 319zM442 1800q0 83 54 136t137 53t135.5 -53t52.5 -136t-52.5 -135.5t-135.5 -52.5 q-84 0 -137.5 52.5t-53.5 135.5zM524 733q0 -181 105 -293t274 -114q170 0 275.5 112.5t105.5 294.5t-105.5 295t-275.5 113q-169 0 -274 -113t-105 -295zM985 1800q0 83 54 136t137 53t135.5 -53t52.5 -136t-52.5 -135.5t-135.5 -52.5q-84 0 -137.5 52.5t-53.5 135.5z" />
<glyph unicode="&#xd7;" horiz-adv-x="974" d="M74 418l190 194l-190 193l225 223l188 -190l189 190l225 -223l-190 -193l188 -194l-223 -223l-189 192l-188 -192z" />
<glyph unicode="&#xd8;" horiz-adv-x="1765" d="M80 733q0 168 60.5 314t166 249.5t255 162.5t321.5 59q144 0 272 -41l148 284h239l-194 -375q160 -106 250 -275t90 -378q0 -168 -60.5 -314t-166.5 -249t-255.5 -162t-322.5 -59q-137 0 -262 39l-142 -275h-239l186 363q-162 103 -254 274.5t-92 382.5zM524 733 q0 -169 101 -278l348 671q-54 15 -90 15q-157 0 -258 -115t-101 -293zM803 336q31 -10 80 -10q157 0 258.5 114.5t101.5 292.5q0 160 -94 275z" />
<glyph unicode="&#xd9;" horiz-adv-x="1636" d="M125 614v852h444v-835q0 -122 66 -210.5t184 -94.5q110 0 179 85t69 220v835h444v-852q0 -296 -191.5 -480.5t-500.5 -184.5q-205 0 -363 83.5t-244.5 235t-86.5 346.5zM371 1931h358l234 -305h-293z" />
<glyph unicode="&#xda;" horiz-adv-x="1636" d="M125 614v852h444v-835q0 -122 66 -210.5t184 -94.5q110 0 179 85t69 220v835h444v-852q0 -296 -191.5 -480.5t-500.5 -184.5q-205 0 -363 83.5t-244.5 235t-86.5 346.5zM645 1626l234 305h356l-299 -305h-291z" />
<glyph unicode="&#xdb;" horiz-adv-x="1636" d="M125 614v852h444v-835q0 -122 66 -210.5t184 -94.5q110 0 179 85t69 220v835h444v-852q0 -296 -191.5 -480.5t-500.5 -184.5q-205 0 -363 83.5t-244.5 235t-86.5 346.5zM426 1622l201 309h383l200 -309h-256l-137 162l-135 -162h-256z" />
<glyph unicode="&#xdc;" horiz-adv-x="1636" d="M125 614v852h444v-835q0 -122 66 -210.5t184 -94.5q110 0 179 85t69 220v835h444v-852q0 -296 -191.5 -480.5t-500.5 -184.5q-205 0 -363 83.5t-244.5 235t-86.5 346.5zM356 1800q0 83 54 136t137 53t135.5 -53t52.5 -136t-52.5 -135.5t-135.5 -52.5q-84 0 -137.5 52.5 t-53.5 135.5zM901 1800q0 83 53.5 136t135.5 53q83 0 135.5 -53t52.5 -136t-52.5 -135.5t-135.5 -52.5q-82 0 -135.5 52.5t-53.5 135.5z" />
<glyph unicode="&#xdd;" horiz-adv-x="1482" d="M16 1466h463l269 -585l247 585h471l-497 -966v-500h-445v500zM567 1626l234 305h358l-299 -305h-293z" />
<glyph unicode="&#xdf;" horiz-adv-x="1599" d="M123 0v983q0 236 182 383t477 147q269 0 432.5 -121.5t163.5 -320.5q0 -95 -53.5 -166t-146.5 -102q137 -30 230 -147t93 -273q0 -189 -136 -311.5t-343 -122.5q-82 0 -177.5 22t-170.5 56l67 258q84 -41 154 -41q71 0 116.5 51.5t45.5 130.5q0 100 -64.5 161.5 t-177.5 61.5h-94v238h98q72 0 116 41.5t44 107.5q0 80 -57 130.5t-148 50.5q-93 0 -150 -61.5t-57 -162.5v-993h-444z" />
<glyph unicode="&#xe0;" horiz-adv-x="1392" d="M74 528q0 254 133 412t348 158q205 0 326 -176v135h393v-1057h-393v135q-121 -176 -326 -176q-215 0 -348 157.5t-133 411.5zM262 1552h350l226 -350h-277zM469 528q0 -97 57.5 -161t147.5 -64q89 0 147 64t58 161q0 98 -58 162t-147 64q-90 0 -147.5 -63.5t-57.5 -162.5 z" />
<glyph unicode="&#xe1;" horiz-adv-x="1392" d="M74 528q0 254 133 412t348 158q205 0 326 -176v135h393v-1057h-393v135q-121 -176 -326 -176q-215 0 -348 157.5t-133 411.5zM469 528q0 -97 57.5 -161t147.5 -64q89 0 147 64t58 161q0 98 -58 162t-147 64q-90 0 -147.5 -63.5t-57.5 -162.5zM514 1202l225 350h351 l-299 -350h-277z" />
<glyph unicode="&#xe2;" horiz-adv-x="1392" d="M74 528q0 254 133 412t348 158q205 0 326 -176v135h393v-1057h-393v135q-121 -176 -326 -176q-215 0 -348 157.5t-133 411.5zM272 1202l211 350h381l211 -350h-266l-135 203l-135 -203h-267zM469 528q0 -97 57.5 -161t147.5 -64q89 0 147 64t58 161q0 98 -58 162t-147 64 q-90 0 -147.5 -63.5t-57.5 -162.5z" />
<glyph unicode="&#xe3;" horiz-adv-x="1392" d="M74 528q0 254 133 412t348 158q205 0 326 -176v135h393v-1057h-393v135q-121 -176 -326 -176q-215 0 -348 157.5t-133 411.5zM250 1341q31 89 112 150t175 61q48 0 95.5 -16.5t78 -36.5t65 -36.5t60.5 -16.5q30 0 58 21t46 55l184 -90q-31 -90 -115.5 -151.5 t-183.5 -61.5q-51 0 -99.5 16.5t-78 36.5t-62 36.5t-57.5 16.5q-57 0 -96 -76zM469 528q0 -97 57.5 -161t147.5 -64q89 0 147 64t58 161q0 98 -58 162t-147 64q-90 0 -147.5 -63.5t-57.5 -162.5z" />
<glyph unicode="&#xe4;" horiz-adv-x="1392" d="M74 528q0 254 133 412t348 158q205 0 326 -176v135h393v-1057h-393v135q-121 -176 -326 -176q-215 0 -348 157.5t-133 411.5zM207 1386q0 79 53.5 130t136.5 51t136 -50.5t53 -130.5t-53 -131t-136 -51t-136.5 51t-53.5 131zM469 528q0 -97 57.5 -161t147.5 -64 q89 0 147 64t58 161q0 98 -58 162t-147 64q-90 0 -147.5 -63.5t-57.5 -162.5zM762 1386q0 79 53 130t135 51q83 0 137 -51t54 -130t-54 -130.5t-137 -51.5q-82 0 -135 51.5t-53 130.5z" />
<glyph unicode="&#xe5;" horiz-adv-x="1392" d="M74 528q0 254 133 412t348 158q205 0 326 -176v135h393v-1057h-393v135q-121 -176 -326 -176q-215 0 -348 157.5t-133 411.5zM358 1464q0 129 88.5 209t233.5 80q142 0 230.5 -80t88.5 -209t-88 -208.5t-231 -79.5q-145 0 -233.5 79.5t-88.5 208.5zM469 528 q0 -97 57.5 -161t147.5 -64q89 0 147 64t58 161q0 98 -58 162t-147 64q-90 0 -147.5 -63.5t-57.5 -162.5zM569 1464q0 -50 30 -80t81 -30q48 0 78 30.5t30 79.5t-30.5 80t-77.5 31q-51 0 -81 -30.5t-30 -80.5z" />
<glyph unicode="&#xe6;" horiz-adv-x="2138" d="M74 528q0 254 134 412t349 158q107 0 196 -48t150 -135v142h234v-160q52 92 156 146.5t239 54.5q232 0 383 -157.5t151 -401.5q0 -54 -6 -123h-770q15 -77 74 -124.5t143 -47.5q62 0 109.5 27.5t69.5 76.5l333 -57q-50 -145 -188 -238.5t-305 -93.5q-129 0 -235 54.5 t-154 142.5v-156h-234v141q-61 -87 -149.5 -134.5t-196.5 -47.5q-215 0 -349 157.5t-134 411.5zM467 528q0 -115 61 -186.5t158 -71.5q98 0 159.5 71t61.5 187t-61.5 188t-159.5 72q-97 0 -158 -72.5t-61 -187.5zM1286 606h385q-6 81 -60 137t-132 56q-76 0 -127 -50.5 t-66 -142.5z" />
<glyph unicode="&#xe7;" horiz-adv-x="1292" d="M74 528q0 247 167.5 408.5t424.5 161.5q143 0 265.5 -55.5t200.5 -155.5t93 -225l-363 -48q-15 68 -69 112t-123 44q-87 0 -144.5 -68.5t-56.5 -173.5q0 -104 56.5 -172.5t144.5 -68.5q69 0 123 43.5t69 111.5l363 -43q-23 -171 -155.5 -291t-319.5 -143l-21 -123 q94 0 150.5 -53t56.5 -141q0 -91 -73 -146t-193 -55q-78 0 -140.5 37.5t-87.5 97.5l107 82q13 -31 40.5 -49t59.5 -18q33 0 53.5 20t20.5 51q0 34 -30 55t-79 21h-104l41 225q-212 36 -344.5 189t-132.5 370z" />
<glyph unicode="&#xe8;" horiz-adv-x="1325" d="M74 532q0 251 167.5 408.5t430.5 157.5q262 0 420.5 -157t158.5 -413q0 -66 -4 -106h-768q21 -85 74 -131.5t133 -46.5q63 0 110 30t68 78l342 -55q-34 -148 -186 -243t-354 -95q-262 0 -427 158.5t-165 414.5zM260 1552h352l224 -350h-277zM477 629h379q-6 77 -60 131.5 t-132 54.5q-74 0 -123 -50t-64 -136z" />
<glyph unicode="&#xe9;" horiz-adv-x="1325" d="M74 532q0 251 167.5 408.5t430.5 157.5q262 0 420.5 -157t158.5 -413q0 -66 -4 -106h-768q21 -85 74 -131.5t133 -46.5q63 0 110 30t68 78l342 -55q-34 -148 -186 -243t-354 -95q-262 0 -427 158.5t-165 414.5zM477 629h379q-6 77 -60 131.5t-132 54.5q-74 0 -123 -50 t-64 -136zM508 1202l225 350h350l-299 -350h-276z" />
<glyph unicode="&#xea;" horiz-adv-x="1325" d="M74 532q0 251 167.5 408.5t430.5 157.5q262 0 420.5 -157t158.5 -413q0 -66 -4 -106h-768q21 -85 74 -131.5t133 -46.5q63 0 110 30t68 78l342 -55q-34 -148 -186 -243t-354 -95q-262 0 -427 158.5t-165 414.5zM272 1202l209 350h381l213 -350h-266l-137 203l-135 -203 h-265zM477 629h379q-6 77 -60 131.5t-132 54.5q-74 0 -123 -50t-64 -136z" />
<glyph unicode="&#xeb;" horiz-adv-x="1325" d="M74 532q0 251 167.5 408.5t430.5 157.5q262 0 420.5 -157t158.5 -413q0 -66 -4 -106h-768q21 -85 74 -131.5t133 -46.5q63 0 110 30t68 78l342 -55q-34 -148 -186 -243t-354 -95q-262 0 -427 158.5t-165 414.5zM205 1368q0 78 53.5 129t136.5 51t136 -51t53 -129 q0 -80 -53 -131t-136 -51t-136.5 51t-53.5 131zM477 629h379q-6 77 -60 131.5t-132 54.5q-74 0 -123 -50t-64 -136zM760 1368q0 78 53 129t135 51q83 0 137 -51t54 -129q0 -79 -54 -130.5t-137 -51.5q-82 0 -135 51.5t-53 130.5z" />
<glyph unicode="&#xec;" horiz-adv-x="636" d="M-92 1552h350l225 -350h-276zM127 0v1057h393v-1057h-393z" />
<glyph unicode="&#xed;" horiz-adv-x="634" d="M119 0v1057h395v-1057h-395zM154 1202l223 350h350l-297 -350h-276z" />
<glyph unicode="&#xee;" horiz-adv-x="636" d="M-84 1202l211 350h381l213 -350h-266l-138 203l-135 -203h-266zM121 0v1057h393v-1057h-393z" />
<glyph unicode="&#xef;" horiz-adv-x="634" d="M-150 1368q0 78 54 129t137 51t135.5 -51t52.5 -129q0 -80 -52.5 -131t-135.5 -51t-137 51.5t-54 130.5zM121 0v1057h393v-1057h-393zM406 1368q0 78 53 129t135 51q83 0 136.5 -51t53.5 -129q0 -80 -53.5 -131t-136.5 -51q-82 0 -135 51.5t-53 130.5z" />
<glyph unicode="&#xf1;" d="M117 0v1057h381v-152q59 91 143.5 142t185.5 51q162 0 266.5 -118.5t104.5 -301.5v-678h-395v588q0 74 -37.5 120t-101.5 46q-65 0 -108.5 -48t-43.5 -124v-582h-395zM215 1341q31 89 112 150t173 61q62 0 120 -26.5t103 -53t76 -26.5q32 0 60 21t46 55l182 -90 q-30 -89 -114 -151t-182 -62q-52 0 -100.5 16.5t-77.5 36.5t-61.5 36.5t-57.5 16.5q-57 0 -99 -76z" />
<glyph unicode="&#xf2;" horiz-adv-x="1345" d="M74 528q0 255 166 412.5t434 157.5q267 0 432.5 -157.5t165.5 -412.5t-165.5 -412t-432.5 -157q-269 0 -434.5 157t-165.5 412zM256 1552h352l223 -350h-276zM469 528q0 -100 56.5 -162.5t148.5 -62.5q91 0 148 62.5t57 162.5t-57 163t-148 63q-92 0 -148.5 -63 t-56.5 -163z" />
<glyph unicode="&#xf3;" horiz-adv-x="1345" d="M74 528q0 255 166 412.5t434 157.5q267 0 432.5 -157.5t165.5 -412.5t-165.5 -412t-432.5 -157q-269 0 -434.5 157t-165.5 412zM469 528q0 -100 56.5 -162.5t148.5 -62.5q91 0 148 62.5t57 162.5t-57 163t-148 63q-92 0 -148.5 -63t-56.5 -163zM508 1202l225 350h350 l-299 -350h-276z" />
<glyph unicode="&#xf4;" horiz-adv-x="1345" d="M74 528q0 255 166 412.5t434 157.5q267 0 432.5 -157.5t165.5 -412.5t-165.5 -412t-432.5 -157q-269 0 -434.5 157t-165.5 412zM272 1202l211 350h381l211 -350h-266l-135 203l-135 -203h-267zM469 528q0 -100 56.5 -162.5t148.5 -62.5q91 0 148 62.5t57 162.5t-57 163 t-148 63q-92 0 -148.5 -63t-56.5 -163z" />
<glyph unicode="&#xf5;" horiz-adv-x="1345" d="M74 528q0 255 166 412.5t434 157.5q267 0 432.5 -157.5t165.5 -412.5t-165.5 -412t-432.5 -157q-269 0 -434.5 157t-165.5 412zM250 1341q31 89 112 150t173 61q62 0 120 -26.5t103 -53t76 -26.5q32 0 60 21t46 55l182 -90q-30 -89 -114.5 -151t-182.5 -62 q-51 0 -99.5 16.5t-78 36.5t-62 36.5t-57.5 16.5q-56 0 -98 -76zM469 528q0 -100 56.5 -162.5t148.5 -62.5q91 0 148 62.5t57 162.5t-57 163t-148 63q-92 0 -148.5 -63t-56.5 -163z" />
<glyph unicode="&#xf6;" horiz-adv-x="1345" d="M74 528q0 255 166 412.5t434 157.5q267 0 432.5 -157.5t165.5 -412.5t-165.5 -412t-432.5 -157q-269 0 -434.5 157t-165.5 412zM207 1368q0 78 53 129t135 51q83 0 137 -51t54 -129q0 -79 -54 -130.5t-137 -51.5q-82 0 -135 51.5t-53 130.5zM469 528q0 -100 56.5 -162.5 t148.5 -62.5q91 0 148 62.5t57 162.5t-57 163t-148 63q-92 0 -148.5 -63t-56.5 -163zM760 1368q0 78 53.5 129t136.5 51t136 -51t53 -129q0 -80 -53 -131t-136 -51t-136.5 51t-53.5 131z" />
<glyph unicode="&#xf7;" horiz-adv-x="1069" d="M74 506v282h921v-282h-921zM348 219q0 77 53 127.5t134 50.5t133.5 -50.5t52.5 -127.5t-52.5 -127.5t-133.5 -50.5t-134 50.5t-53 127.5zM348 1067q0 78 52.5 128t134.5 50t134 -50t52 -128q0 -77 -52.5 -127.5t-133.5 -50.5t-134 50.5t-53 127.5z" />
<glyph unicode="&#xf8;" horiz-adv-x="1380" d="M74 528q0 255 170 412.5t446 157.5q101 0 193 -25l80 156h198l-117 -221q124 -73 192.5 -197.5t68.5 -282.5q0 -255 -170 -412t-445 -157q-90 0 -184 23l-74 -146h-199l109 207q-127 73 -197.5 198.5t-70.5 286.5zM418 528q0 -127 74 -204l256 491q-24 6 -58 6 q-119 0 -195.5 -81.5t-76.5 -211.5zM643 242q21 -6 47 -6q120 0 195.5 81.5t75.5 210.5q0 118 -66 197z" />
<glyph unicode="&#xf9;" d="M96 381v676h396v-586q0 -76 37.5 -122t101.5 -46q65 0 108 49t43 125v580h396v-1057h-379v152q-60 -91 -145.5 -142t-186.5 -51q-163 0 -267 118.5t-104 303.5zM225 1552h353l223 -350h-277z" />
<glyph unicode="&#xfa;" d="M96 381v676h396v-586q0 -76 37.5 -122t101.5 -46q65 0 108 49t43 125v580h396v-1057h-379v152q-60 -91 -145.5 -142t-186.5 -51q-163 0 -267 118.5t-104 303.5zM477 1202l225 350h351l-299 -350h-277z" />
<glyph unicode="&#xfb;" d="M96 381v676h396v-586q0 -76 37.5 -122t101.5 -46q65 0 108 49t43 125v580h396v-1057h-379v152q-60 -91 -145.5 -142t-186.5 -51q-163 0 -267 118.5t-104 303.5zM236 1202l210 350h381l213 -350h-268l-135 203l-135 -203h-266z" />
<glyph unicode="&#xfc;" d="M96 381v676h396v-586q0 -76 37.5 -122t101.5 -46q65 0 108 49t43 125v580h396v-1057h-379v152q-60 -91 -145.5 -142t-186.5 -51q-163 0 -267 118.5t-104 303.5zM170 1366q0 80 53.5 131t136.5 51t136 -51t53 -131q0 -78 -53 -129t-136 -51t-136.5 51t-53.5 129zM725 1366 q0 79 53 130.5t135 51.5q83 0 137 -51.5t54 -130.5q0 -78 -54 -129t-137 -51q-82 0 -135 51t-53 129z" />
<glyph unicode="&#xfd;" horiz-adv-x="1298" d="M18 1057h428l244 -582l184 582h406l-401 -1106q-82 -226 -187 -330t-256 -104q-124 0 -227 39v276q43 -16 113 -16q89 0 139 37.5t80 128.5zM496 1202l225 350h350l-299 -350h-276z" />
<glyph unicode="&#xff;" horiz-adv-x="1298" d="M18 1057h428l244 -582l184 582h406l-401 -1106q-82 -226 -187 -330t-256 -104q-124 0 -227 39v276q43 -16 113 -16q89 0 139 37.5t80 128.5zM184 1368q0 78 53.5 129t135.5 51q83 0 136.5 -51t53.5 -129q0 -80 -53.5 -131t-136.5 -51q-82 0 -135.5 51.5t-53.5 130.5z M737 1368q0 78 53.5 129t135.5 51q84 0 137 -50.5t53 -129.5q0 -80 -53 -131t-137 -51q-82 0 -135.5 51.5t-53.5 130.5z" />
<glyph unicode="&#x152;" horiz-adv-x="2150" d="M80 733q0 234 89 409.5t261 273t408 97.5q129 0 247 -47h965v-346h-539v-227h457v-299h-457v-246h560v-348h-984q-113 -45 -249 -45q-236 0 -408 97t-261 272t-89 409zM524 733q0 -176 100.5 -288.5t256.5 -112.5q120 0 202 63v676q-80 64 -198 64q-157 0 -259 -113 t-102 -289z" />
<glyph unicode="&#x153;" horiz-adv-x="2131" d="M74 528q0 255 166 412.5t434 157.5q267 0 403 -168q143 168 416 168q252 0 408.5 -157.5t156.5 -412.5q0 -66 -4 -106l-766 2q19 -85 72 -132.5t129 -47.5q63 0 112 30.5t72 77.5l324 -73q-40 -140 -183.5 -230t-326.5 -90q-271 0 -410 168q-136 -168 -403 -168 q-269 0 -434.5 157t-165.5 412zM469 528q0 -100 56.5 -162.5t148.5 -62.5q91 0 148 62.5t57 162.5t-57 163t-148 63q-92 0 -148.5 -63t-56.5 -163zM1284 629h379q-6 77 -60.5 131.5t-132.5 54.5q-74 0 -122.5 -50t-63.5 -136z" />
<glyph unicode="&#x178;" horiz-adv-x="1482" d="M16 1466h463l269 -585l247 585h471l-497 -966v-500h-445v500zM281 1800q0 83 53.5 136t136.5 53t135.5 -53t52.5 -136t-52.5 -135.5t-135.5 -52.5t-136.5 52.5t-53.5 135.5zM823 1800q0 83 54 136t137 53t135.5 -53t52.5 -136t-52.5 -135.5t-135.5 -52.5 q-84 0 -137.5 52.5t-53.5 135.5z" />
<glyph unicode="&#x2c6;" horiz-adv-x="950" d="M74 1190l211 350h381l211 -350h-267l-135 203l-135 -203h-266z" />
<glyph unicode="&#x2dc;" horiz-adv-x="1021" d="M74 1292q31 89 111.5 150t172.5 61q62 0 120 -26.5t103 -53t76 -26.5q32 0 60.5 21t46.5 55l184 -93q-31 -88 -116 -149.5t-183 -61.5q-51 0 -99.5 16.5t-78 37t-62 37t-57.5 16.5q-57 0 -96 -76z" />
<glyph unicode="&#x2000;" horiz-adv-x="1032" />
<glyph unicode="&#x2001;" horiz-adv-x="2064" />
<glyph unicode="&#x2002;" horiz-adv-x="1032" />
<glyph unicode="&#x2003;" horiz-adv-x="2064" />
<glyph unicode="&#x2004;" horiz-adv-x="688" />
<glyph unicode="&#x2005;" horiz-adv-x="516" />
<glyph unicode="&#x2006;" horiz-adv-x="344" />
<glyph unicode="&#x2007;" horiz-adv-x="344" />
<glyph unicode="&#x2008;" horiz-adv-x="258" />
<glyph unicode="&#x2009;" horiz-adv-x="412" />
<glyph unicode="&#x200a;" horiz-adv-x="114" />
<glyph unicode="&#x2010;" horiz-adv-x="987" d="M74 479v314h839v-314h-839z" />
<glyph unicode="&#x2011;" horiz-adv-x="987" d="M74 479v314h839v-314h-839z" />
<glyph unicode="&#x2012;" horiz-adv-x="987" d="M74 479v314h839v-314h-839z" />
<glyph unicode="&#x2013;" horiz-adv-x="1314" d="M74 479v314h1167v-314h-1167z" />
<glyph unicode="&#x2014;" horiz-adv-x="1673" d="M47 479v314h1577v-314h-1577z" />
<glyph unicode="&#x2018;" horiz-adv-x="589" d="M74 1071q0 121 63 248.5t160 202.5l192 -47q-74 -67 -122 -145t-48 -134q86 0 140.5 -59t54.5 -152q0 -92 -60.5 -151.5t-150.5 -59.5q-103 0 -166 81t-63 216z" />
<glyph unicode="&#x2019;" horiz-adv-x="589" d="M74 1325q0 93 61 152t152 59q103 0 166 -81t63 -214q0 -123 -63 -249.5t-160 -200.5l-193 45q73 66 120.5 144t47.5 134q-85 0 -139.5 59.5t-54.5 151.5z" />
<glyph unicode="&#x201a;" horiz-adv-x="589" d="M74 174q0 91 61.5 151t151.5 60q103 0 166 -81t63 -216q0 -121 -63 -248t-160 -202l-193 47q74 66 121 143.5t47 134.5q-85 0 -139.5 59.5t-54.5 151.5z" />
<glyph unicode="&#x201c;" horiz-adv-x="1142" d="M78 1071q0 121 63 248.5t160 202.5l193 -47q-74 -66 -121 -144t-47 -135q85 0 139.5 -59.5t54.5 -151.5q0 -91 -61.5 -151t-151.5 -60q-103 0 -166 81t-63 216zM623 1071q0 122 62 249t159 202l192 -47q-74 -66 -121 -144t-47 -135q85 0 140 -59.5t55 -151.5 t-60.5 -151.5t-150.5 -59.5q-104 0 -166.5 81t-62.5 216z" />
<glyph unicode="&#x201d;" horiz-adv-x="1136" d="M80 1341q0 92 60.5 151.5t150.5 59.5q103 0 166 -81t63 -214q0 -123 -62.5 -250t-160.5 -200l-191 45q73 67 120.5 145t47.5 133q-86 0 -140 59t-54 152zM623 1341q0 92 60.5 151.5t150.5 59.5q103 0 166 -81t63 -214q0 -123 -62 -250t-159 -200l-193 45q73 66 120.5 144 t47.5 134q-85 0 -139.5 59.5t-54.5 151.5z" />
<glyph unicode="&#x201e;" horiz-adv-x="1136" d="M80 174q0 92 60.5 151.5t150.5 59.5q103 0 166 -81t63 -214q0 -123 -62.5 -250t-160.5 -200l-191 45q73 67 120.5 145t47.5 133q-86 0 -140 59t-54 152zM623 174q0 92 60.5 151.5t150.5 59.5q103 0 166 -81t63 -214q0 -123 -62 -250t-159 -200l-193 45q73 66 120.5 144 t47.5 134q-85 0 -139.5 59.5t-54.5 151.5z" />
<glyph unicode="&#x2022;" horiz-adv-x="720" d="M74 635q0 122 80 199t206 77q125 0 205 -77.5t80 -198.5t-80 -199t-205 -78q-126 0 -206 77.5t-80 199.5z" />
<glyph unicode="&#x2026;" horiz-adv-x="1679" d="M74 174q0 92 62 152.5t157 60.5q96 0 157.5 -60t61.5 -153q0 -92 -61 -151.5t-158 -59.5q-95 0 -157 59.5t-62 151.5zM621 174q0 92 62 152.5t157 60.5q96 0 157.5 -60t61.5 -153q0 -92 -61 -151.5t-158 -59.5q-95 0 -157 59.5t-62 151.5zM1167 174q0 92 62 152.5 t157 60.5q96 0 158 -60t62 -153q0 -92 -61.5 -151.5t-158.5 -59.5q-95 0 -157 59.5t-62 151.5z" />
<glyph unicode="&#x202f;" horiz-adv-x="412" />
<glyph unicode="&#x2039;" horiz-adv-x="841" d="M18 543l349 514h401l-362 -514l362 -543h-401z" />
<glyph unicode="&#x203a;" horiz-adv-x="841" d="M74 0l364 543l-364 514h401l350 -514l-350 -543h-401z" />
<glyph unicode="&#x205f;" horiz-adv-x="516" />
<glyph unicode="&#x20ac;" horiz-adv-x="1857" d="M59 510v184h166q-2 12 -2 39q0 29 2 43h-166v187h195q70 251 277.5 403t492.5 152q298 0 510 -168.5t240 -427.5l-410 -43q-23 114 -115 188t-211 74q-105 0 -187 -47t-128 -131h332v-187h-385q-2 -14 -2 -43q0 -27 2 -39h385v-184h-334q48 -87 130 -135.5t185 -48.5 q117 0 210.5 73t119.5 185l412 -47q-15 -168 -117.5 -302.5t-269.5 -210t-367 -75.5q-285 0 -493.5 153.5t-276.5 407.5h-195z" />
<glyph unicode="&#x2122;" horiz-adv-x="2459" d="M27 1190v276h850v-276h-261v-883h-327v883h-262zM979 307v1159h383l287 -737l280 737h393v-1159h-311v680l-248 -680h-227l-246 680v-680h-311z" />
<glyph unicode="&#x25fc;" horiz-adv-x="1054" d="M0 0v1055h1055v-1055h-1055z" />
</font>
</defs>
</svg>
